<svg width="85" height="54" viewBox="0 0 85 54" fill="none" xmlns="http://www.w3.org/2000/svg">
<path fill-rule="evenodd" clip-rule="evenodd" d="M66.531 28.981L45.0694 39.8622L27.2962 31.6072C25.8871 30.9455 25.0157 30.417 23.563 30.3851C23.563 44.1264 22.0187 44.6409 31.0147 48.6391C31.9949 49.0748 32.6777 49.2791 33.7368 49.808C44.6603 55.2631 44.4346 55.8984 57.6941 48.696C58.6121 48.1973 59.2155 47.8572 60.2394 47.3521L70.0513 42.3137C86.4694 34.0559 84.9635 36.786 84.9635 20.2057L66.5307 28.981H66.531Z" fill="#C627CA"/>
<path fill-rule="evenodd" clip-rule="evenodd" d="M45.1152 39.8572C50.0481 44.4711 60.8713 44.4152 66.931 42.6346C71.5289 41.2835 81.2833 37.7049 83.4577 34.2435C85.6127 30.8128 84.9999 25.5017 84.9999 19.9286L65.3845 29.5714L45.1152 39.8572Z" fill="url(#paint0_linear_244_59)"/>
<path fill-rule="evenodd" clip-rule="evenodd" d="M23.5119 35.0764C23.34 44.3159 23.1789 45.1569 31.0147 48.6395C31.9948 49.0751 32.6777 49.2794 33.7368 49.8083C44.0273 54.9473 44.4251 55.8076 55.5217 49.8688C50.5719 50.4009 46.5911 48.0846 37.6882 43.6386C36.0949 42.8427 35.0674 42.5354 33.5929 41.8801C27.8088 39.3093 24.9224 37.6949 23.5118 35.0763L23.5119 35.0764Z" fill="#A41DAC"/>
<path fill-rule="evenodd" clip-rule="evenodd" d="M18.4689 25.0193L39.9306 14.1381L57.7037 22.3931C59.1128 23.0548 59.9842 23.5833 61.4369 23.6152C61.4369 9.87381 62.9812 9.35933 53.9852 5.3611C53.005 4.92545 52.3222 4.72114 51.2631 4.1922C40.3396 -1.26286 40.5653 -1.89814 27.3058 5.30429C26.3878 5.80292 25.7844 6.14308 24.7605 6.6481L14.9486 11.6866C-1.46947 19.9444 0.0364274 17.2143 0.0364274 33.7946L18.4689 25.0193Z" fill="#952CDD"/>
<path fill-rule="evenodd" clip-rule="evenodd" d="M39.8845 14.1429C34.9516 9.52889 24.1284 9.58487 18.0687 11.3654C13.4708 12.7165 3.48192 16.1457 1.30757 19.6072C-0.847421 23.0378 -0.000117213 28.4984 -0.000117213 34.0714L20.2691 24.1072L39.8845 14.1429Z" fill="url(#paint1_linear_244_59)"/>
<path fill-rule="evenodd" clip-rule="evenodd" d="M61.4878 18.9236C61.6598 9.68409 61.8208 8.8431 53.9851 5.36054C53.0049 4.9249 52.3221 4.72058 51.263 4.19165C40.9724 -0.947271 40.5747 -1.8076 29.478 4.13115C34.4278 3.59913 38.4086 5.91539 47.3116 10.3614C48.9048 11.1573 49.9323 11.4646 51.4068 12.12C57.1909 14.6907 60.0774 16.3051 61.4879 18.9237L61.4878 18.9236Z" fill="#7F2EB9"/>
<defs>
<linearGradient id="paint0_linear_244_59" x1="45.2943" y1="31.9818" x2="84.9998" y2="31.9818" gradientUnits="userSpaceOnUse">
<stop stop-color="#7C0C8B"/>
<stop offset="1" stop-color="#C627CA"/>
</linearGradient>
<linearGradient id="paint1_linear_244_59" x1="-0.000109806" y1="22.0183" x2="39.7055" y2="22.0183" gradientUnits="userSpaceOnUse">
<stop stop-color="#371545"/>
<stop offset="1" stop-color="#952CDD"/>
</linearGradient>
</defs>
</svg>
