<svg width="62" height="86" viewBox="0 0 62 86" fill="none" xmlns="http://www.w3.org/2000/svg">
<path d="M42.875 9.1875H39.8125C39.8125 4.12212 35.6904 0 30.625 0C25.5596 0 21.4375 4.12212 21.4375 9.1875H18.375C16.6845 9.1875 15.3125 10.5564 15.3125 12.25V15.3125H8.63931C3.87713 15.3125 0 19.1896 0 23.9518V77.1076C0 81.8729 3.87713 85.75 8.63931 85.75H52.6076C57.3729 85.75 61.25 81.8729 61.25 77.1107V23.9518C61.25 19.1896 57.3729 15.3125 52.6107 15.3125H45.9375V12.25C45.9375 10.5564 44.5655 9.1875 42.875 9.1875ZM30.625 6.125C32.3124 6.125 33.6875 7.497 33.6875 9.1875H27.5625C27.5625 7.497 28.9376 6.125 30.625 6.125ZM21.4375 15.3125H39.8125V21.4375H21.4375V15.3125ZM52.6107 21.4375C53.9949 21.4375 55.125 22.5645 55.125 23.9518V77.1076C55.125 78.498 53.9949 79.625 52.6107 79.625H8.63931C7.25506 79.625 6.125 78.498 6.125 77.1107V23.9518C6.125 22.5645 7.25506 21.4375 8.63931 21.4375H15.3125V24.5C15.3125 26.1936 16.6845 27.5625 18.375 27.5625H42.875C44.5655 27.5625 45.9375 26.1936 45.9375 24.5V21.4375H52.6107Z" fill="#FEFEFE"/>
<path d="M21.4375 33.6875H12.25C10.5595 33.6875 9.1875 35.0564 9.1875 36.75V45.9375C9.1875 47.6311 10.5595 49 12.25 49H21.4375C23.128 49 24.5 47.6311 24.5 45.9375V36.75C24.5 35.0564 23.128 33.6875 21.4375 33.6875ZM18.375 42.875H15.3125V39.8125H18.375V42.875Z" fill="#FEFEFE"/>
<path d="M27.5625 41.3438C27.5625 43.0373 28.9345 44.4062 30.625 44.4062H49C50.6905 44.4062 52.0625 43.0373 52.0625 41.3438C52.0625 39.6502 50.6905 38.2812 49 38.2812H30.625C28.9345 38.2812 27.5625 39.6502 27.5625 41.3438Z" fill="#FEFEFE"/>
<path d="M21.4375 55.125H12.25C10.5595 55.125 9.1875 56.4939 9.1875 58.1875V67.375C9.1875 69.0686 10.5595 70.4375 12.25 70.4375H21.4375C23.128 70.4375 24.5 69.0686 24.5 67.375V58.1875C24.5 56.4939 23.128 55.125 21.4375 55.125ZM18.375 64.3125H15.3125V61.25H18.375V64.3125Z" fill="#FEFEFE"/>
<path d="M49 59.7188H30.625C28.9345 59.7188 27.5625 61.0877 27.5625 62.7812C27.5625 64.4748 28.9345 65.8438 30.625 65.8438H49C50.6905 65.8438 52.0625 64.4748 52.0625 62.7812C52.0625 61.0877 50.6905 59.7188 49 59.7188Z" fill="#FEFEFE"/>
</svg>
