<svg width="81" height="82" viewBox="0 0 81 82" fill="none" xmlns="http://www.w3.org/2000/svg">
<path fill-rule="evenodd" clip-rule="evenodd" d="M72.6835 33.4017C71.4177 20.4167 63.741 0 40.0169 0C16.2927 0 8.61603 20.4167 7.3502 33.4017C2.90962 35.087 -0.0194552 39.3504 9.72926e-05 44.1V49.8167C9.72926e-05 56.1311 5.11907 61.25 11.4335 61.25C17.748 61.25 22.8669 56.1311 22.8669 49.8167V44.1C22.8463 39.4529 20.0248 35.2771 15.721 33.5242C16.5377 26.0108 20.5394 8.16667 40.0169 8.16667C59.4944 8.16667 63.4552 26.0108 64.2719 33.5242C59.9768 35.2809 57.1695 39.4595 57.1669 44.1V49.8167C57.1846 54.2062 59.7051 58.2009 63.6594 60.1067C61.9444 63.3325 57.5752 67.7017 46.836 69.0083C44.6893 65.7486 40.5361 64.4635 36.9235 65.9413C33.311 67.4191 31.2491 71.2466 32.0024 75.0763C32.7558 78.906 36.1137 81.6667 40.0169 81.6667C43.1012 81.6496 45.9127 79.8963 47.2852 77.1342C64.8027 75.1333 70.3969 66.1092 72.1527 60.8008C76.9029 59.2621 80.0976 54.8095 80.0335 49.8167V44.1C80.0532 39.3504 77.1241 35.087 72.6835 33.4017ZM14.7002 49.8167C14.7002 51.6208 13.2377 53.0833 11.4335 53.0833C9.6294 53.0833 8.16686 51.6208 8.16686 49.8167V44.1C8.16686 42.9329 8.78949 41.8545 9.8002 41.271C10.8109 40.6875 12.0562 40.6875 13.0669 41.271C14.0776 41.8545 14.7002 42.9329 14.7002 44.1V49.8167ZM65.3335 44.1C65.3335 42.2959 66.7961 40.8333 68.6002 40.8333C70.4043 40.8333 71.8669 42.2959 71.8669 44.1V49.8167C71.8669 51.6208 70.4043 53.0833 68.6002 53.0833C66.7961 53.0833 65.3335 51.6208 65.3335 49.8167V44.1Z" fill="#FEFEFE"/>
</svg>
